<svg width="1317.735" xmlns="http://www.w3.org/2000/svg" height="2614" viewBox="3231.265 3619 1317.735 2614" fill="none"><path d="M3915.132,3675.619C3856.206,3557.257,4649.830,3734.801,4514.425,3976.810C4399.958,4181.397,3997.000,4392.000,3997.000,4392.000C3997.000,4392.000,3592.000,4626.000,3766.000,4924.000C3940.000,5222.000,4302.000,5393.000,4075.000,5638.000C3845.998,5885.160,3095.000,5858.000,3279.000,6214.000M4066.000,4142.000" class="fills"/><g class="strokes"><g class="stroke-shape"><defs><marker refX="3" fill-opacity="1" orient="auto-start-reverse" id="a" viewBox="0 0 6 6" fill="#68df90" refY="3" markerWidth="6" markerHeight="6"><path d="M 3 2.5 A 0.5 0.5 0 0 1 3 3.5"/></marker></defs><path d="M3915.132,3675.619C3856.206,3557.257,4649.830,3734.801,4514.425,3976.810C4399.958,4181.397,3997.000,4392.000,3997.000,4392.000C3997.000,4392.000,3592.000,4626.000,3766.000,4924.000C3940.000,5222.000,4302.000,5393.000,4075.000,5638.000C3845.998,5885.160,3095.000,5858.000,3279.000,6214.000M4066.000,4142.000" style="fill: none; stroke-width: 15; stroke: rgb(104, 223, 144); stroke-opacity: 1; marker-start: url(&quot;#a&quot;);"/></g></g></svg>